PathFileType  4	(X/Y/Z) C:\Users\antoi\Documents\MyRepositories\mobilecap\ResultsAnalysis
DataRate	CameraRate	NumFrames	NumMarkers	Units	OrigDataRate	OrigDataStartFrame	OrigNumFrames
100.0	100.0	6	51	mm	100.0	401	801
Frame#	Time	r_knee			r_shank_antsup			r_ankle			r_calc			r_5meta			r_toe			L_knee			L_shank_antsup			L_ankle			L_calc			L_5meta			L_toe			r_sh2			r_sh3			r_sh4			L_sh2			L_sh3			r_thigh1			r_thigh2			r_thigh3			r_thigh4			r_thigh5			L_thigh1			L_thigh2			L_thigh3			L_thigh4			r.ASIS			r.PSIS			L.ASIS			L.PSIS			C7			R_Shoulder			L_Shoulder			R_Sternum			L_Sternum			R_humerus			R_elbow_med			R_elbow_lat			R_forearm			R_wrist_radius			R_wrist_ulna			L_humerus			L_elbow_med			L_elbow_lat			L_forearm			L_wrist_radius			L_wrist_ulna			R_HJC			L_HJC			R_HJC_reg			L_HJC_reg			
		X1	Y1	Z1	X2	Y2	Z2	X3	Y3	Z3	X4	Y4	Z4	X5	Y5	Z5	X6	Y6	Z6	X7	Y7	Z7	X8	Y8	Z8	X9	Y9	Z9	X10	Y10	Z10	X11	Y11	Z11	X12	Y12	Z12	X13	Y13	Z13	X14	Y14	Z14	X15	Y15	Z15	X16	Y16	Z16	X17	Y17	Z17	X18	Y18	Z18	X19	Y19	Z19	X20	Y20	Z20	X21	Y21	Z21	X22	Y22	Z22	X23	Y23	Z23	X24	Y24	Z24	X25	Y25	Z25	X26	Y26	Z26	X27	Y27	Z27	X28	Y28	Z28	X29	Y29	Z29	X30	Y30	Z30	X31	Y31	Z31	X32	Y32	Z32	X33	Y33	Z33	X34	Y34	Z34	X35	Y35	Z35	X36	Y36	Z36	X37	Y37	Z37	X38	Y38	Z38	X39	Y39	Z39	X40	Y40	Z40	X41	Y41	Z41	X42	Y42	Z42	X43	Y43	Z43	X44	Y44	Z44	X45	Y45	Z45	X46	Y46	Z46	X47	Y47	Z47	X48	Y48	Z48	X49	Y49	Z49	X50	Y50	Z50	X51	Y51	Z51	

401	4.00000000	-157.55079	576.85968	-321.71033	-133.13846	434.81567	-308.64395	-291.44482	104.48852	-306.34450	-350.06260	72.97460	-366.70524	-160.10367	41.08882	-267.71071	-120.42969	70.15932	-316.89175	-164.31889	570.96623	-861.39248	-135.77545	375.65173	-867.90338	-299.68748	113.11675	-878.62344	-359.27828	72.80619	-818.33894	-164.71376	36.86074	-926.69519	-121.24814	67.42046	-868.63202	-167.35995	329.38245	-312.74778	-200.58553	452.49437	-281.81431	-238.19684	346.40961	-274.16844	-204.50147	411.00103	-911.99533	-249.39068	300.58060	-902.41024	-387.42316	758.40783	-345.39440	-287.24980	718.00163	-325.03186	-292.49970	648.10287	-315.79098	-433.48173	654.61401	-358.45633	-323.99227	607.75788	-339.51841	-377.67255	773.02707	-803.29275	-260.64913	714.63478	-835.46815	-436.42129	682.53894	-821.63693	-316.43950	624.33839	-862.85171	-399.27604	808.12828	-439.58226	-529.84782	922.43141	-545.37628	-400.54682	776.47542	-715.38391	-524.77779	917.83694	-634.74481	-74.34583	1105.17922	-586.78178	-13.89128	1013.10578	-434.91156	-23.74099	1039.73389	-738.64388	-30.17615	940.87078	-566.80104	-31.07153	941.38688	-606.61746	117.51374	848.52109	-377.17706	143.42664	692.29606	-386.02272	166.06700	740.08574	-316.82109	328.83574	823.03484	-431.92041	395.99478	856.97719	-480.51884	413.43644	826.68986	-471.19199	136.56612	866.23153	-786.91377	133.23166	729.31094	-792.65478	179.06091	777.84709	-843.82547	336.63682	839.71884	-718.89390	384.49779	864.56613	-667.48605	399.96027	839.38812	-684.55674	-515.19583	767.46585	-475.88108	-517.39790	752.52421	-672.77856	-507.57654	761.59723	-482.80979	-497.21197	752.20477	-665.50152	
402	4.01000000	-158.04291	577.04368	-322.51669	-133.57781	435.06883	-309.37628	-291.49703	104.47181	-306.35136	-350.11699	72.83959	-366.59580	-160.12059	41.12635	-267.70769	-120.41763	70.18132	-316.94901	-164.91426	571.21223	-861.44224	-136.32596	375.92631	-868.15992	-299.74782	113.07926	-878.69629	-359.31984	72.77041	-818.40537	-164.74710	36.79092	-926.71183	-121.26674	67.42226	-868.67837	-167.68317	329.64001	-313.11913	-201.09989	452.70922	-282.49193	-238.71486	346.70832	-274.50573	-205.16723	411.08870	-911.93848	-249.95027	300.70088	-902.57668	-387.12954	760.04304	-345.98366	-287.01183	719.01691	-325.94852	-292.61839	649.10463	-316.50252	-433.60200	656.32571	-359.07872	-324.35409	608.93096	-340.05781	-377.25807	774.51744	-803.53094	-260.46422	715.55209	-835.70087	-436.45149	684.29712	-821.70623	-316.78605	625.49138	-862.90616	-398.87488	809.81226	-440.14647	-529.49141	924.84646	-545.41024	-400.75422	778.79442	-715.94831	-524.51601	920.35895	-634.96547	-74.29447	1107.73509	-586.82179	-13.87489	1015.49239	-434.94523	-23.49173	1042.89560	-738.43328	-30.04009	943.56834	-566.88941	-30.96867	943.72791	-606.58688	117.45605	851.02592	-377.48236	143.26449	694.56865	-386.16585	166.20685	742.54221	-316.79729	328.94995	825.42998	-432.00514	396.23034	859.45223	-480.33259	413.56541	829.06843	-470.96087	136.95502	869.53333	-786.53125	133.84598	732.72409	-793.16227	179.75631	781.29398	-843.53302	337.00310	842.76682	-718.15727	384.79972	867.50592	-666.68002	400.33837	842.53189	-683.98813	-515.04569	769.61453	-476.32317	-517.62280	755.08747	-673.24789	-507.47861	763.79508	-483.33357	-497.33013	754.64188	-666.00369	
403	4.02000000	-158.68507	577.41594	-323.56678	-134.20475	435.40480	-310.14397	-291.50766	104.46917	-306.35012	-350.17207	72.70783	-366.47675	-160.11959	41.14199	-267.71734	-120.39061	70.19384	-317.00305	-165.57695	571.69294	-861.55690	-136.95610	376.29428	-868.33145	-299.78480	113.07154	-878.85175	-359.33301	72.77749	-818.48543	-164.78725	36.68042	-926.72034	-121.25894	67.42309	-868.78208	-167.98402	329.90394	-313.57695	-201.72874	452.95959	-283.25872	-239.02439	346.95153	-274.95923	-205.90224	411.27058	-911.87972	-250.47841	300.78209	-902.57956	-386.64329	761.98623	-346.72165	-286.74654	720.32940	-326.85526	-292.73267	650.35444	-317.43670	-433.75647	658.56211	-359.76337	-324.75334	610.37565	-340.90427	-376.66308	776.41062	-803.83926	-260.17959	716.72557	-835.90788	-436.40183	686.50722	-821.78102	-317.17098	626.97521	-862.88438	-398.66210	812.47929	-440.54572	-529.09717	927.98125	-545.43920	-400.86061	781.66571	-716.32881	-524.18170	923.51233	-635.18953	-74.37792	1111.01271	-586.95340	-13.90624	1018.57138	-434.97374	-23.29954	1046.75717	-738.31226	-29.97281	947.02358	-567.08381	-30.94617	946.42595	-606.60462	117.22500	854.12785	-377.66562	142.99437	697.65721	-386.54731	166.04728	745.54010	-317.08980	328.84773	828.40385	-431.90110	396.29851	862.42380	-480.00926	413.57834	831.93413	-470.82230	137.15938	873.44274	-786.27379	134.26337	736.63031	-793.80528	180.20411	785.23828	-843.35713	337.07420	846.41299	-717.79242	384.75289	870.93780	-665.86955	400.33712	846.00449	-683.15168	-514.97158	772.62251	-476.60386	-517.77584	758.26201	-673.53769	-507.44477	766.83019	-483.68097	-497.44117	757.73486	-666.33624	
404	4.03000000	-159.42980	577.96317	-324.79901	-134.98075	435.81141	-311.10167	-291.50356	104.47903	-306.32829	-350.24077	72.66689	-366.36805	-160.06753	41.17171	-267.75301	-120.37640	70.20957	-317.05512	-166.32528	572.38182	-861.82152	-137.65913	376.67647	-868.38399	-299.82381	113.03590	-879.01195	-359.31823	72.80662	-818.56180	-164.80337	36.57155	-926.76286	-121.24203	67.38913	-868.90061	-168.45781	330.08053	-314.13747	-202.43207	453.26929	-284.21360	-239.22086	347.21724	-275.41031	-206.71327	411.65345	-911.99014	-250.92788	300.91394	-902.51800	-386.05198	764.20314	-347.68743	-286.42338	721.95104	-327.91000	-292.83947	651.99865	-318.47103	-433.87401	661.16179	-360.73781	-325.14463	612.18416	-341.98404	-375.93617	778.69574	-804.10348	-259.84422	718.13229	-836.13574	-436.29827	689.15752	-821.96909	-317.50638	628.80366	-863.03550	-398.33652	815.82137	-440.98539	-528.60966	931.84086	-545.61860	-400.92217	784.98715	-716.59716	-523.73890	927.28234	-635.50314	-74.49405	1115.21713	-587.03176	-13.88175	1022.77044	-435.08291	-23.14914	1051.31179	-738.19983	-29.93953	951.25311	-567.34729	-30.89437	950.65797	-606.93508	116.89163	857.79064	-377.77713	142.50137	701.37769	-387.03373	165.32472	749.03208	-317.64710	328.58182	831.87586	-431.49067	396.17213	865.79443	-479.48772	413.42360	835.31280	-470.47135	137.21388	877.85767	-786.11491	134.25842	740.98452	-793.94826	180.29988	789.67915	-843.36440	336.85856	850.54368	-717.47532	384.42253	874.81936	-665.18299	400.00894	849.83536	-682.28311	-514.85091	776.38498	-476.83439	-517.90185	761.99648	-673.76180	-507.35599	770.64145	-484.02408	-497.46425	761.38256	-666.56883	
405	4.04000000	-160.30790	578.55264	-326.14456	-135.82569	436.29244	-312.31446	-291.50745	104.48505	-306.30923	-350.30079	72.66859	-366.29191	-159.97398	41.25855	-267.78911	-120.40041	70.25436	-317.12615	-167.24071	573.08417	-861.96840	-138.43102	377.14266	-868.45840	-299.86846	112.99809	-879.14195	-359.29962	72.85570	-818.65517	-164.80574	36.49152	-926.84754	-121.20634	67.37316	-869.05123	-169.17535	330.35785	-314.89750	-203.22603	453.65826	-285.30857	-239.72121	347.50040	-275.98291	-207.63913	412.12247	-912.12638	-251.49769	301.13297	-902.60738	-385.36159	766.93314	-348.77900	-285.99068	723.74415	-329.26818	-292.99495	654.04010	-319.52668	-433.92218	664.19010	-361.84066	-325.62571	614.43608	-343.08469	-375.12360	781.30605	-804.19977	-259.51505	719.71421	-836.24995	-436.20419	692.21919	-822.15882	-317.86192	630.91218	-863.35482	-397.79918	819.71519	-441.36644	-528.05319	936.40306	-545.84389	-400.91991	788.82190	-716.69444	-523.20493	931.67803	-635.80454	-74.55996	1120.36185	-587.03532	-13.83027	1028.15560	-435.26508	-23.02513	1056.58424	-738.21309	-29.86457	956.36220	-567.61833	-30.80315	956.62961	-607.36983	116.43257	862.03975	-377.84870	141.62532	705.57478	-387.40537	164.34041	753.06341	-317.88969	328.18669	835.78766	-431.01859	395.89576	869.63394	-478.83785	413.01237	839.16281	-469.78949	137.12206	882.70733	-786.13628	133.77901	745.82533	-793.74388	180.05526	794.63536	-843.53480	336.36467	854.98368	-716.99905	383.94938	879.09081	-664.72807	399.39526	854.17532	-681.61502	-514.63288	780.81855	-476.96214	-517.97048	766.30429	-673.87576	-507.16952	775.14959	-484.29768	-497.34268	765.57129	-666.65047	
406	4.05000000	-161.36175	579.09337	-327.66628	-136.77983	436.87145	-313.57737	-291.52840	104.47587	-306.30314	-350.35983	72.62366	-366.23529	-159.89583	41.37943	-267.78488	-120.47191	70.32180	-317.23239	-168.44004	573.72982	-861.80381	-139.31714	377.72139	-868.58083	-299.90212	113.04178	-879.32546	-359.30101	72.90616	-818.75481	-164.81346	36.43580	-926.93651	-121.17621	67.41410	-869.19206	-169.93694	330.83393	-315.86158	-204.17804	454.08721	-286.44284	-240.60693	347.90192	-276.74213	-208.72154	412.42727	-912.06678	-252.25389	301.34833	-902.76995	-384.46576	770.12966	-349.84447	-285.55336	725.65144	-330.65807	-293.21122	656.24505	-320.60469	-434.00310	667.81254	-362.83482	-326.28085	617.02658	-344.19712	-374.24328	784.21479	-804.29509	-259.24015	721.40657	-836.21220	-436.11953	695.72903	-822.35540	-318.40102	633.22983	-863.54237	-397.21275	824.16342	-441.48941	-527.47051	941.62984	-546.03474	-400.78408	793.32430	-716.66653	-522.58330	936.74246	-636.05924	-74.58103	1126.31620	-587.03690	-13.89255	1034.21440	-435.38961	-22.90694	1062.59809	-738.42844	-29.80968	962.28763	-567.65550	-30.78636	963.09906	-607.58889	115.77815	866.92753	-377.96112	140.39511	710.42810	-387.83479	163.30827	757.65559	-317.72378	327.53466	840.17229	-430.68815	395.38586	873.96172	-478.25021	412.28113	843.37830	-469.09434	136.84114	888.06016	-786.31240	132.93662	751.15263	-793.81833	179.51293	800.08591	-843.78355	335.54832	859.76564	-716.52860	383.14922	883.73165	-664.28369	398.45611	858.98911	-681.17460	-514.41309	785.88095	-477.01818	-517.91681	771.26896	-673.92228	-506.99710	780.25924	-484.41945	-497.10458	770.36586	-666.65171	
